<svg width="375" height="428" viewBox="0 0 375 428" fill="none" xmlns="http://www.w3.org/2000/svg">
<circle cx="223" cy="240" r="240" fill="url(#paint0_linear)"/>
<path d="M128.96 105.135L128.575 108.435H111.195L111.47 97.82L111.195 73.18H115.705L115.43 97.435L115.595 104.75H128.63L128.96 105.135ZM153.546 104.915L153.876 105.245L153.491 108.435H136.826L136.991 100.185L136.826 81.045H153.601L153.876 81.375L153.546 84.565L146.616 84.345L140.896 84.4L140.841 92.705L146.286 92.76L151.071 92.595L151.346 92.98L151.016 96.225L145.956 96.06L140.841 96.115L140.786 99.855L140.841 105.08L146.231 105.135L153.546 104.915ZM180.802 81.375L180.527 84.84L175.412 84.455H172.662L172.497 99.855L172.662 108.435H168.537L168.702 100.185L168.592 84.455H165.842L160.617 84.84L160.287 84.455L160.617 81.045H180.582L180.802 81.375ZM189.851 80.88C191.831 81.6133 192.821 82.9883 192.821 85.005C192.821 87.2783 191.483 89.735 188.806 92.375L187.156 91.22L187.101 90.835C188.641 89.185 189.411 87.645 189.411 86.215C189.411 84.7483 188.696 83.74 187.266 83.19V82.75C187.963 82.09 188.824 81.4667 189.851 80.88ZM210.256 80.77C212.492 80.77 214.729 81.21 216.966 82.09L216.251 86.16L215.591 86.325C214.564 85.5183 213.592 84.9317 212.676 84.565C211.759 84.1617 210.806 83.96 209.816 83.96C208.239 83.96 206.992 84.3817 206.076 85.225C205.159 86.0317 204.701 86.9667 204.701 88.03C204.701 89.0933 205.141 89.955 206.021 90.615C206.937 91.275 208.331 92.0083 210.201 92.815C211.851 93.5483 213.152 94.2083 214.106 94.795C215.096 95.3817 215.939 96.17 216.636 97.16C217.369 98.1133 217.736 99.2867 217.736 100.68C217.736 102.11 217.351 103.448 216.581 104.695C215.811 105.905 214.674 106.895 213.171 107.665C211.704 108.398 209.944 108.765 207.891 108.765C206.607 108.765 205.251 108.618 203.821 108.325C202.427 107.995 201.126 107.518 199.916 106.895L200.411 102.55L200.961 102.33C201.987 103.357 203.179 104.163 204.536 104.75C205.929 105.3 207.212 105.575 208.386 105.575C209.926 105.575 211.191 105.172 212.181 104.365C213.171 103.522 213.666 102.513 213.666 101.34C213.666 100.24 213.207 99.36 212.291 98.7C211.411 98.04 210.017 97.27 208.111 96.39C206.534 95.6933 205.232 95.0517 204.206 94.465C203.216 93.8783 202.372 93.1083 201.676 92.155C200.979 91.165 200.631 89.9733 200.631 88.58C200.631 87.1133 201.016 85.7933 201.786 84.62C202.592 83.4467 203.711 82.5117 205.141 81.815C206.607 81.1183 208.312 80.77 210.256 80.77ZM119.28 146.77C121.517 146.77 123.753 147.21 125.99 148.09L125.275 152.16L124.615 152.325C123.588 151.518 122.617 150.932 121.7 150.565C120.783 150.162 119.83 149.96 118.84 149.96C117.263 149.96 116.017 150.382 115.1 151.225C114.183 152.032 113.725 152.967 113.725 154.03C113.725 155.093 114.165 155.955 115.045 156.615C115.962 157.275 117.355 158.008 119.225 158.815C120.875 159.548 122.177 160.208 123.13 160.795C124.12 161.382 124.963 162.17 125.66 163.16C126.393 164.113 126.76 165.287 126.76 166.68C126.76 168.11 126.375 169.448 125.605 170.695C124.835 171.905 123.698 172.895 122.195 173.665C120.728 174.398 118.968 174.765 116.915 174.765C115.632 174.765 114.275 174.618 112.845 174.325C111.452 173.995 110.15 173.518 108.94 172.895L109.435 168.55L109.985 168.33C111.012 169.357 112.203 170.163 113.56 170.75C114.953 171.3 116.237 171.575 117.41 171.575C118.95 171.575 120.215 171.172 121.205 170.365C122.195 169.522 122.69 168.513 122.69 167.34C122.69 166.24 122.232 165.36 121.315 164.7C120.435 164.04 119.042 163.27 117.135 162.39C115.558 161.693 114.257 161.052 113.23 160.465C112.24 159.878 111.397 159.108 110.7 158.155C110.003 157.165 109.655 155.973 109.655 154.58C109.655 153.113 110.04 151.793 110.81 150.62C111.617 149.447 112.735 148.512 114.165 147.815C115.632 147.118 117.337 146.77 119.28 146.77ZM160.079 165.855L160.189 174.435H156.119L156.284 166.185L156.229 162.445L141.324 162.5L141.269 165.855L141.379 174.435H137.309L137.474 166.185L137.309 147.045H141.434L141.324 158.815L148.749 158.87L156.229 158.815L156.119 147.045H160.244L160.079 165.855ZM194.163 174.435H190.038L189.378 171.465L187.948 167.395L181.403 167.34L175.573 167.395L174.088 171.245L173.318 174.435H169.248L179.808 147.045H184.538L194.163 174.435ZM186.793 164.04L182.228 151.06H181.898L176.893 164.04L181.733 164.095L186.793 164.04ZM216.312 163.38C218.549 166.79 221.024 170.145 223.737 173.445L223.682 173.995C222.142 174.472 220.877 174.747 219.887 174.82L219.172 174.38C216.386 170.163 214.277 166.845 212.847 164.425L207.677 164.48V165.855L207.787 174.435H203.717L203.882 166.185L203.717 147.045L213.067 146.99C215.964 146.99 218.182 147.668 219.722 149.025C221.299 150.382 222.087 152.343 222.087 154.91C222.087 156.78 221.574 158.448 220.547 159.915C219.557 161.382 218.146 162.537 216.312 163.38ZM207.732 161.07L212.902 161.235C216.166 160.318 217.797 158.32 217.797 155.24C217.797 153.627 217.321 152.417 216.367 151.61C215.414 150.803 213.966 150.363 212.022 150.29L207.787 150.345L207.732 161.07ZM250.473 170.915L250.803 171.245L250.418 174.435H233.753L233.918 166.185L233.753 147.045H250.528L250.803 147.375L250.473 150.565L243.543 150.345L237.823 150.4L237.768 158.705L243.213 158.76L247.998 158.595L248.273 158.98L247.943 162.225L242.883 162.06L237.768 162.115L237.713 165.855L237.768 171.08L243.158 171.135L250.473 170.915ZM120.71 232.57L120.875 240.435H116.75L116.97 232.57L116.915 230.865L107.62 213.045H112.13L112.68 214.64L118.84 226.41H119.115L125.825 214.805L126.54 213.045H130.94L120.765 230.865L120.71 232.57ZM148.841 212.715C152.838 212.715 155.9 213.888 158.026 216.235C160.19 218.582 161.271 221.9 161.271 226.19C161.271 230.847 160.116 234.458 157.806 237.025C155.533 239.555 152.27 240.82 148.016 240.82C144.056 240.82 140.995 239.628 138.831 237.245C136.668 234.825 135.586 231.397 135.586 226.96C135.586 222.413 136.741 218.912 139.051 216.455C141.361 213.962 144.625 212.715 148.841 212.715ZM148.456 216.18C145.56 216.18 143.396 217.005 141.966 218.655C140.573 220.305 139.876 222.908 139.876 226.465C139.876 230.278 140.573 233.047 141.966 234.77C143.36 236.493 145.486 237.355 148.346 237.355C151.28 237.355 153.461 236.512 154.891 234.825C156.321 233.138 157.036 230.498 157.036 226.905C157.036 223.202 156.321 220.488 154.891 218.765C153.498 217.042 151.353 216.18 148.456 216.18ZM192.491 226.96V230.92C192.528 234.037 191.575 236.457 189.631 238.18C187.725 239.903 184.975 240.765 181.381 240.765C177.825 240.765 175.111 239.922 173.241 238.235C171.371 236.512 170.473 234.073 170.546 230.92L170.601 226.74L170.546 213.045H174.671L174.451 230.26C174.415 232.57 174.983 234.312 176.156 235.485C177.366 236.658 179.163 237.245 181.546 237.245C183.893 237.245 185.671 236.658 186.881 235.485C188.091 234.312 188.678 232.57 188.641 230.26L188.476 213.045H192.656L192.491 226.96ZM216.957 229.38C219.194 232.79 221.669 236.145 224.382 239.445L224.327 239.995C222.787 240.472 221.522 240.747 220.532 240.82L219.817 240.38C217.03 236.163 214.922 232.845 213.492 230.425L208.322 230.48V231.855L208.432 240.435H204.362L204.527 232.185L204.362 213.045L213.712 212.99C216.609 212.99 218.827 213.668 220.367 215.025C221.944 216.382 222.732 218.343 222.732 220.91C222.732 222.78 222.219 224.448 221.192 225.915C220.202 227.382 218.79 228.537 216.957 229.38ZM208.377 227.07L213.547 227.235C216.81 226.318 218.442 224.32 218.442 221.24C218.442 219.627 217.965 218.417 217.012 217.61C216.059 216.803 214.61 216.363 212.667 216.29L208.432 216.345L208.377 227.07ZM121.975 278.715C125.972 278.715 129.033 279.888 131.16 282.235C133.323 284.582 134.405 287.9 134.405 292.19C134.405 296.847 133.25 300.458 130.94 303.025C128.667 305.555 125.403 306.82 121.15 306.82C117.19 306.82 114.128 305.628 111.965 303.245C109.802 300.825 108.72 297.397 108.72 292.96C108.72 288.413 109.875 284.912 112.185 282.455C114.495 279.962 117.758 278.715 121.975 278.715ZM121.59 282.18C118.693 282.18 116.53 283.005 115.1 284.655C113.707 286.305 113.01 288.908 113.01 292.465C113.01 296.278 113.707 299.047 115.1 300.77C116.493 302.493 118.62 303.355 121.48 303.355C124.413 303.355 126.595 302.512 128.025 300.825C129.455 299.138 130.17 296.498 130.17 292.905C130.17 289.202 129.455 286.488 128.025 284.765C126.632 283.042 124.487 282.18 121.59 282.18ZM153.91 278.99C156.807 278.99 159.025 279.687 160.565 281.08C162.142 282.473 162.93 284.49 162.93 287.13C162.93 290.21 161.94 292.63 159.96 294.39C158.017 296.113 155.322 296.975 151.875 296.975H148.52V297.855L148.63 306.435H144.56L144.725 298.185L144.56 279.045L153.91 278.99ZM153.195 293.785C156.825 293.162 158.64 291.053 158.64 287.46C158.64 285.737 158.145 284.453 157.155 283.61C156.202 282.767 154.754 282.308 152.81 282.235L148.63 282.29L148.575 293.675L153.195 293.785ZM176.89 297.855L177 306.435H172.93L173.095 298.185L172.93 279.045H177.055L176.89 297.855ZM212.629 298.24L212.684 306.435H208.284L193.874 285.535H193.599L193.544 297.305L193.654 306.435H189.914L190.079 298.35L189.969 279.045H194.314L208.724 299.945H209.109L208.999 279.21L212.794 278.935L212.629 298.24ZM229.387 297.855L229.497 306.435H225.427L225.592 298.185L225.427 279.045H229.552L229.387 297.855ZM252.278 278.715C256.274 278.715 259.336 279.888 261.463 282.235C263.626 284.582 264.708 287.9 264.708 292.19C264.708 296.847 263.553 300.458 261.243 303.025C258.969 305.555 255.706 306.82 251.453 306.82C247.493 306.82 244.431 305.628 242.268 303.245C240.104 300.825 239.023 297.397 239.023 292.96C239.023 288.413 240.178 284.912 242.488 282.455C244.798 279.962 248.061 278.715 252.278 278.715ZM251.893 282.18C248.996 282.18 246.833 283.005 245.403 284.655C244.009 286.305 243.313 288.908 243.313 292.465C243.313 296.278 244.009 299.047 245.403 300.77C246.796 302.493 248.923 303.355 251.783 303.355C254.716 303.355 256.898 302.512 258.328 300.825C259.758 299.138 260.473 296.498 260.473 292.905C260.473 289.202 259.758 286.488 258.328 284.765C256.934 283.042 254.789 282.18 251.893 282.18ZM297.578 298.24L297.633 306.435H293.233L278.823 285.535H278.548L278.493 297.305L278.603 306.435H274.863L275.028 298.35L274.918 279.045H279.263L293.673 299.945H294.058L293.948 279.21L297.743 278.935L297.578 298.24Z" fill="black" fill-opacity="0.63"/>
<path d="M347.47 191.411C349.032 189.849 349.032 187.316 347.47 185.754L322.014 160.298C320.452 158.736 317.919 158.736 316.357 160.298C314.795 161.86 314.795 164.393 316.357 165.955L338.985 188.583L316.357 211.21C314.795 212.772 314.795 215.305 316.357 216.867C317.919 218.429 320.452 218.429 322.014 216.867L347.47 191.411ZM279.934 192.583H344.642V184.583H279.934V192.583Z" fill="black" fill-opacity="0.7"/>
<defs>
<linearGradient id="paint0_linear" x1="223" y1="0" x2="223" y2="480" gradientUnits="userSpaceOnUse">
<stop stop-color="#FCFF6A"/>
<stop offset="1" stop-color="white"/>
</linearGradient>
</defs>
</svg>
